<?xml version="1.0" standalone="no"?>
<!DOCTYPE svg PUBLIC "-//W3C//DTD SVG 20010904//EN"
 "http://www.w3.org/TR/2001/REC-SVG-20010904/DTD/svg10.dtd">
<svg version="1.0" xmlns="http://www.w3.org/2000/svg"
 width="520.000000pt" height="520.000000pt" viewBox="0 0 520.000000 520.000000"
 preserveAspectRatio="xMidYMid meet">
<metadata>
Created by potrace 1.14, written by Peter Selinger 2001-2017
</metadata>
<g transform="translate(0.000000,520.000000) scale(0.100000,-0.100000)"
fill="#000000" stroke="none">
<path d="M2856 4993 c-2 -2 -66 -5 -142 -8 -148 -5 -162 -6 -238 -29 -27 -8
-53 -13 -57 -10 -4 2 -10 0 -13 -5 -3 -5 -21 -12 -39 -15 -39 -7 -157 -52
-249 -95 -36 -17 -71 -31 -77 -31 -6 0 -11 -5 -11 -12 0 -6 -3 -8 -6 -5 -4 4
-19 -2 -34 -13 -16 -11 -35 -20 -43 -20 -8 0 -18 -7 -21 -16 -4 -9 -9 -14 -13
-11 -3 4 -18 -2 -33 -13 -16 -11 -33 -20 -39 -20 -6 0 -11 -3 -11 -8 0 -4 -20
-18 -45 -32 -25 -14 -45 -28 -45 -32 0 -5 -6 -8 -12 -8 -18 0 -73 -45 -133
-106 -123 -127 -150 -170 -169 -274 -2 -14 -7 -36 -10 -50 -3 -14 -7 -43 -10
-65 -3 -22 -7 -47 -10 -55 -3 -8 -8 -33 -11 -55 -6 -46 -24 -105 -35 -120 -16
-20 -109 -255 -116 -292 -11 -61 -12 -144 -3 -203 20 -134 36 -217 55 -298 8
-34 12 -67 9 -72 -3 -6 -1 -10 4 -10 17 0 13 -20 -5 -27 -9 -3 -19 -1 -23 6
-4 6 -16 13 -27 15 -10 2 -30 8 -44 13 -45 16 -103 3 -135 -31 -27 -29 -57
-76 -49 -76 4 0 2 -6 -3 -12 -9 -12 -9 -66 -1 -123 4 -29 76 -172 118 -235 60
-90 80 -140 72 -180 -7 -39 -7 -78 2 -165 4 -33 8 -91 10 -130 4 -100 15 -153
38 -199 27 -54 99 -167 116 -185 8 -8 19 -27 24 -43 6 -15 14 -28 19 -28 5 0
9 -8 9 -19 0 -10 16 -36 36 -57 36 -39 36 -40 30 -109 -6 -78 -21 -173 -36
-224 -5 -18 -9 -36 -8 -40 1 -3 -1 -13 -4 -21 -3 -8 -16 -43 -28 -78 -12 -35
-29 -80 -38 -100 -9 -20 -16 -39 -17 -42 0 -3 -4 -11 -8 -18 -23 -35 -52 -174
-62 -292 -2 -19 -4 -35 -5 -35 -1 0 -3 -17 -4 -37 -2 -44 -4 -47 -42 -52 -36
-5 -64 -16 -64 -25 0 -4 10 -17 23 -29 77 -74 98 -124 100 -248 2 -75 -1 -96
-20 -132 -13 -23 -23 -45 -23 -47 0 -3 844 -5 1875 -5 l1875 0 0 502 0 501
-29 61 c-61 129 -101 218 -101 227 0 5 -3 9 -8 9 -4 0 -16 19 -26 42 -10 24
-24 50 -31 58 -7 8 -20 36 -30 63 -10 26 -42 79 -71 119 -30 39 -59 84 -66
100 -7 15 -16 28 -20 28 -5 0 -8 5 -8 10 0 6 -16 33 -35 61 -19 28 -36 56 -36
63 -1 6 -2 52 -3 101 -1 67 -5 96 -18 115 -17 25 -18 73 -2 122 2 9 7 25 9 35
19 81 35 109 110 184 76 77 86 89 121 157 10 17 21 32 26 32 4 0 8 7 8 16 0 8
10 36 21 62 12 25 22 51 23 57 1 5 4 15 8 20 5 8 5 66 -1 125 -2 32 -86 121
-136 148 -20 10 -57 15 -107 16 -72 0 -77 1 -81 23 -2 12 -1 25 2 28 3 4 6 14
6 23 0 9 6 16 13 14 8 -1 12 10 12 33 0 43 -1 38 10 75 5 19 5 30 -1 30 -6 0
-5 8 1 21 6 11 10 25 7 32 -2 6 3 18 11 26 11 12 13 35 8 115 -3 56 -7 112
-10 126 -2 14 -7 43 -10 65 -4 22 -9 60 -12 85 -3 25 -10 65 -16 90 -6 25 -12
56 -14 70 -3 27 -15 65 -47 145 -17 43 -99 181 -117 195 -4 3 -26 32 -51 65
-71 96 -188 222 -247 265 -19 14 -39 30 -45 35 -7 6 -25 17 -42 25 -16 8 -38
22 -48 31 -10 9 -39 25 -65 35 -26 9 -49 21 -52 25 -6 8 -276 139 -288 139 -5
0 -32 11 -60 25 -29 14 -54 24 -55 23 -2 -2 -11 3 -20 11 -10 7 -17 11 -17 8
0 -3 -17 1 -37 10 -21 8 -49 17 -63 20 -33 6 -42 9 -60 16 -14 5 -35 10 -105
23 -34 6 -244 12 -249 7z m-810 -4275 c4 -6 -1 -17 -10 -26 -15 -15 -16 -15
-16 1 0 10 -4 16 -9 13 -5 -3 -14 0 -20 8 -9 11 -9 15 1 18 17 6 47 -2 54 -14z"/>
</g>
</svg>
